# xmcd
#
# Track frame offsets:
#	150
#	15253
#	30513
#	43248
#	58261
#	73289
#	89803
#	107913
#	132220
#	146795
#	161875
#	176214
#	191739
#	207448
#	220167
#
# Disc length: 3122 seconds
#
# Revision: 0
# Processed by: cddbd v1.5.2PL0 Copyright (c) Steve Scherf et al.
# Submitted via: EasyCDDAExtractor 16.0.6.1
#
DISCID=f10c300f
DTITLE=Συλλογικός δίσκος - Τα πιο όμορφα τραγούδια 1928-1968 2
DYEAR=2010
DGENRE=Ελαφρά
TTITLE0=Βέμπο Σοφία - Σβήσε το φως να κοιμηθούμε [Λεώ Ραπίτης-Μίμης Τραϊφόρος]
TTITLE1=Γούναρης Νίκος-Μωράκης Τάκης - Για μάς καλαηδούν τα πουλιά [Μιχ. Σουγι
TTITLE1=ούλ-Νίκος Φατσέας]
TTITLE2=Βέμπο Σοφία - Το πρωΐ με ξυπνάς με φιλιά [Γ. Κυπαρίσης-Χ. Γιαννακόπουλ
TTITLE2=ος]
TTITLE3=Δανάη - Ας ερχόσουν για λίγο [Μιχ. Σουγιούλ-Μίμης Τραϊφόρος]
TTITLE4=Γκρέκα Στέλλα - Χθες το βράδυ ονειρεύτηκα [Κώστας Γιαννίδης-Δ. Γιαννου
TTITLE4=κάκης]
TTITLE5=Γούναρης Νίκος - Πού νά 'σαι τώρα αγαπημένη [Νίκος Γούναρης-Κ. Κοφινιώ
TTITLE5=της]
TTITLE6=Λω Μαίρη - Τα δυό σου χέρια [Νίκυ Γιάκοβλεφ-Κ. Κοφινιώτης]
TTITLE7=Γκρέκα Στέλλα - Έλα γι' απόψε [Χρήστος Χαιρόπουλος]
TTITLE8=Γκρέκα Στέλλα - Πάμε στο άγνωστο [Μενέλαος Θεοφανίδης-Δ. Ευαγγελίδης]
TTITLE9=Βέμπο Σοφία - Πόσο λυπάμαι [Κ. Γιαννίδης-Π. Παπαδούκας/Β. Σπυρόπουλος]
TTITLE10=Δανάη - Θα ξανάρθεις [Κώστας Γιαννίδης-Αλ. Σακελλάριος]
TTITLE11=Γκρέκα Στέλλα-Μαρούδας Τώνης - Γύρισε [Γιάννης Βέλλας-Νίκος Φατσέας]
TTITLE12=Δανάη - Γλευκειά μου αγάπη (Amado mio)[Fisher/Roberts-απ. Πωλ Μενεστρ
TTITLE12=έλ]
TTITLE13=Θωμάκος Μιχάλης - Ραμόνα [μουσ. M. Wayne]
TTITLE14=Κάκκη Ελβίρα ή Ελβίρα Ντε Ιντάλγκο - Παλόμα [μουσ. S. Yradier-απ. Φοί
TTITLE14=βος Ατρείδης]
EXTD=
EXTT0=
EXTT1=
EXTT2=
EXTT3=
EXTT4=
EXTT5=
EXTT6=
EXTT7=
EXTT8=
EXTT9=
EXTT10=
EXTT11=
EXTT12=
EXTT13=
EXTT14=
PLAYORDER=
